<mxfile host="Electron" agent="Mozilla/5.0 (X11; Linux x86_64) AppleWebKit/537.36 (KHTML, like Gecko) draw.io/27.0.9 Chrome/134.0.6998.205 Electron/35.4.0 Safari/537.36" version="27.0.9">
  <diagram name="Página-1" id="Si9PdR-W8FnnPKaAIWtb">
    <mxGraphModel dx="872" dy="1700" grid="1" gridSize="10" guides="1" tooltips="1" connect="1" arrows="1" fold="1" page="1" pageScale="1" pageWidth="827" pageHeight="1169" math="0" shadow="0">
      <root>
        <mxCell id="0" />
        <mxCell id="1" parent="0" />
        <mxCell id="y1UfGzF3mYjny-DPBC8S-1" value="Revisar la cantidad de cada item del stock" style="rounded=1;whiteSpace=wrap;html=1;absoluteArcSize=1;arcSize=14;strokeWidth=2;fillColor=#dae8fc;strokeColor=#6c8ebf;" parent="1" vertex="1">
          <mxGeometry x="210" y="10" width="100" height="100" as="geometry" />
        </mxCell>
        <mxCell id="y1UfGzF3mYjny-DPBC8S-8" value="Sí" style="edgeStyle=orthogonalEdgeStyle;rounded=0;orthogonalLoop=1;jettySize=auto;html=1;exitX=0.5;exitY=1;exitDx=0;exitDy=0;exitPerimeter=0;entryX=0.5;entryY=0;entryDx=0;entryDy=0;fillColor=#dae8fc;strokeColor=#6c8ebf;" parent="1" source="y1UfGzF3mYjny-DPBC8S-2" target="y1UfGzF3mYjny-DPBC8S-3" edge="1">
          <mxGeometry relative="1" as="geometry" />
        </mxCell>
        <mxCell id="y1UfGzF3mYjny-DPBC8S-9" value="No" style="edgeStyle=orthogonalEdgeStyle;rounded=0;orthogonalLoop=1;jettySize=auto;html=1;exitX=1;exitY=0.5;exitDx=0;exitDy=0;exitPerimeter=0;fillColor=#dae8fc;strokeColor=#6c8ebf;" parent="1" source="y1UfGzF3mYjny-DPBC8S-2" target="y1UfGzF3mYjny-DPBC8S-4" edge="1">
          <mxGeometry relative="1" as="geometry" />
        </mxCell>
        <mxCell id="y1UfGzF3mYjny-DPBC8S-2" value="¿Es mayor a 50 piezas de Item?" style="strokeWidth=2;html=1;shape=mxgraph.flowchart.decision;whiteSpace=wrap;fillColor=#dae8fc;strokeColor=#6c8ebf;" parent="1" vertex="1">
          <mxGeometry x="210" y="170" width="100" height="100" as="geometry" />
        </mxCell>
        <mxCell id="y1UfGzF3mYjny-DPBC8S-3" value="Cantidad optima" style="rounded=1;whiteSpace=wrap;html=1;absoluteArcSize=1;arcSize=14;strokeWidth=2;fillColor=#dae8fc;strokeColor=#6c8ebf;" parent="1" vertex="1">
          <mxGeometry x="210" y="330" width="100" height="100" as="geometry" />
        </mxCell>
        <mxCell id="y1UfGzF3mYjny-DPBC8S-10" value="Sí" style="edgeStyle=orthogonalEdgeStyle;rounded=0;orthogonalLoop=1;jettySize=auto;html=1;exitX=0.5;exitY=1;exitDx=0;exitDy=0;exitPerimeter=0;fillColor=#dae8fc;strokeColor=#6c8ebf;" parent="1" source="y1UfGzF3mYjny-DPBC8S-4" target="y1UfGzF3mYjny-DPBC8S-5" edge="1">
          <mxGeometry relative="1" as="geometry" />
        </mxCell>
        <mxCell id="y1UfGzF3mYjny-DPBC8S-11" value="No" style="edgeStyle=orthogonalEdgeStyle;rounded=0;orthogonalLoop=1;jettySize=auto;html=1;exitX=1;exitY=0.5;exitDx=0;exitDy=0;exitPerimeter=0;fillColor=#dae8fc;strokeColor=#6c8ebf;" parent="1" source="y1UfGzF3mYjny-DPBC8S-4" target="y1UfGzF3mYjny-DPBC8S-6" edge="1">
          <mxGeometry relative="1" as="geometry" />
        </mxCell>
        <mxCell id="y1UfGzF3mYjny-DPBC8S-4" value="¿Es menor a 25 piezas de Item?" style="strokeWidth=2;html=1;shape=mxgraph.flowchart.decision;whiteSpace=wrap;fillColor=#dae8fc;strokeColor=#6c8ebf;" parent="1" vertex="1">
          <mxGeometry x="414" y="170" width="100" height="100" as="geometry" />
        </mxCell>
        <mxCell id="y1UfGzF3mYjny-DPBC8S-5" value="Solicitar al proveedor" style="rounded=1;whiteSpace=wrap;html=1;absoluteArcSize=1;arcSize=14;strokeWidth=2;fillColor=#dae8fc;strokeColor=#6c8ebf;" parent="1" vertex="1">
          <mxGeometry x="414" y="330" width="100" height="100" as="geometry" />
        </mxCell>
        <mxCell id="y1UfGzF3mYjny-DPBC8S-6" value="Marcar como advertencia" style="rounded=1;whiteSpace=wrap;html=1;absoluteArcSize=1;arcSize=14;strokeWidth=2;fillColor=#dae8fc;strokeColor=#6c8ebf;" parent="1" vertex="1">
          <mxGeometry x="600" y="170" width="100" height="100" as="geometry" />
        </mxCell>
        <mxCell id="y1UfGzF3mYjny-DPBC8S-7" style="edgeStyle=orthogonalEdgeStyle;rounded=0;orthogonalLoop=1;jettySize=auto;html=1;exitX=0.5;exitY=1;exitDx=0;exitDy=0;entryX=0.5;entryY=0;entryDx=0;entryDy=0;entryPerimeter=0;fillColor=#dae8fc;strokeColor=#6c8ebf;" parent="1" source="y1UfGzF3mYjny-DPBC8S-1" target="y1UfGzF3mYjny-DPBC8S-2" edge="1">
          <mxGeometry relative="1" as="geometry" />
        </mxCell>
        <mxCell id="y1UfGzF3mYjny-DPBC8S-12" value="Mis puntos de reorden / Contrlol de Stock" style="text;html=1;align=center;verticalAlign=middle;whiteSpace=wrap;rounded=0;fillColor=#dae8fc;strokeColor=none;gradientColor=none;" parent="1" vertex="1">
          <mxGeometry x="390" y="120" width="170" height="30" as="geometry" />
        </mxCell>
        <mxCell id="rQ1RyL4YtpQLSRB3d6i6-26" style="edgeStyle=orthogonalEdgeStyle;rounded=0;orthogonalLoop=1;jettySize=auto;html=1;exitX=0.5;exitY=1;exitDx=0;exitDy=0;exitPerimeter=0;entryX=0.5;entryY=0;entryDx=0;entryDy=0;" parent="1" source="GP2_9fRb6jsG9fSEQ1mg-2" target="rQ1RyL4YtpQLSRB3d6i6-7" edge="1">
          <mxGeometry relative="1" as="geometry" />
        </mxCell>
        <mxCell id="rQ1RyL4YtpQLSRB3d6i6-27" style="edgeStyle=orthogonalEdgeStyle;rounded=0;orthogonalLoop=1;jettySize=auto;html=1;exitX=0.5;exitY=1;exitDx=0;exitDy=0;exitPerimeter=0;entryX=0.5;entryY=0;entryDx=0;entryDy=0;" parent="1" source="GP2_9fRb6jsG9fSEQ1mg-2" target="GP2_9fRb6jsG9fSEQ1mg-3" edge="1">
          <mxGeometry relative="1" as="geometry" />
        </mxCell>
        <mxCell id="GP2_9fRb6jsG9fSEQ1mg-2" value="Inicio" style="strokeWidth=2;html=1;shape=mxgraph.flowchart.start_1;whiteSpace=wrap;" parent="1" vertex="1">
          <mxGeometry x="350" y="-350" width="100" height="60" as="geometry" />
        </mxCell>
        <mxCell id="GP2_9fRb6jsG9fSEQ1mg-4" style="edgeStyle=orthogonalEdgeStyle;rounded=0;orthogonalLoop=1;jettySize=auto;html=1;exitX=0.5;exitY=1;exitDx=0;exitDy=0;fillColor=#dae8fc;strokeColor=#6c8ebf;" parent="1" source="GP2_9fRb6jsG9fSEQ1mg-3" target="y1UfGzF3mYjny-DPBC8S-1" edge="1">
          <mxGeometry relative="1" as="geometry" />
        </mxCell>
        <mxCell id="GP2_9fRb6jsG9fSEQ1mg-3" value="Notificaciones" style="rounded=1;whiteSpace=wrap;html=1;absoluteArcSize=1;arcSize=14;strokeWidth=2;fillColor=#dae8fc;strokeColor=#6c8ebf;" parent="1" vertex="1">
          <mxGeometry x="210" y="-160" width="100" height="100" as="geometry" />
        </mxCell>
        <mxCell id="GP2_9fRb6jsG9fSEQ1mg-9" value="No" style="edgeStyle=orthogonalEdgeStyle;rounded=0;orthogonalLoop=1;jettySize=auto;html=1;exitX=1;exitY=0.5;exitDx=0;exitDy=0;exitPerimeter=0;fillColor=#e1d5e7;strokeColor=#9673a6;" parent="1" source="GP2_9fRb6jsG9fSEQ1mg-6" target="GP2_9fRb6jsG9fSEQ1mg-7" edge="1">
          <mxGeometry relative="1" as="geometry" />
        </mxCell>
        <mxCell id="XgwGahx4obBgcmmxPO0F-2" value="Sí" style="edgeStyle=orthogonalEdgeStyle;rounded=0;orthogonalLoop=1;jettySize=auto;html=1;exitX=0.5;exitY=1;exitDx=0;exitDy=0;exitPerimeter=0;fillColor=#f8cecc;strokeColor=#b85450;" parent="1" source="GP2_9fRb6jsG9fSEQ1mg-6" target="GP2_9fRb6jsG9fSEQ1mg-10" edge="1">
          <mxGeometry relative="1" as="geometry" />
        </mxCell>
        <mxCell id="GP2_9fRb6jsG9fSEQ1mg-6" value="¿Es pedido normal?" style="strokeWidth=2;html=1;shape=mxgraph.flowchart.decision;whiteSpace=wrap;fillColor=#f8cecc;strokeColor=#b85450;" parent="1" vertex="1">
          <mxGeometry x="610" y="780" width="100" height="100" as="geometry" />
        </mxCell>
        <mxCell id="XgwGahx4obBgcmmxPO0F-6" value="Si" style="edgeStyle=orthogonalEdgeStyle;rounded=0;orthogonalLoop=1;jettySize=auto;html=1;exitX=0.5;exitY=1;exitDx=0;exitDy=0;exitPerimeter=0;fillColor=#e1d5e7;strokeColor=#9673a6;" parent="1" source="GP2_9fRb6jsG9fSEQ1mg-7" target="XgwGahx4obBgcmmxPO0F-4" edge="1">
          <mxGeometry relative="1" as="geometry" />
        </mxCell>
        <mxCell id="GP2_9fRb6jsG9fSEQ1mg-7" value="¿Es pedido urgente?" style="strokeWidth=2;html=1;shape=mxgraph.flowchart.decision;whiteSpace=wrap;fillColor=#e1d5e7;strokeColor=#9673a6;" parent="1" vertex="1">
          <mxGeometry x="796" y="780" width="100" height="100" as="geometry" />
        </mxCell>
        <mxCell id="XgwGahx4obBgcmmxPO0F-15" style="edgeStyle=orthogonalEdgeStyle;rounded=0;orthogonalLoop=1;jettySize=auto;html=1;exitX=0.5;exitY=1;exitDx=0;exitDy=0;exitPerimeter=0;fillColor=#f8cecc;strokeColor=#b85450;" parent="1" source="GP2_9fRb6jsG9fSEQ1mg-10" target="XgwGahx4obBgcmmxPO0F-12" edge="1">
          <mxGeometry relative="1" as="geometry" />
        </mxCell>
        <mxCell id="XxHAxnA4pDJHmgFTphE2-3" style="edgeStyle=orthogonalEdgeStyle;rounded=0;orthogonalLoop=1;jettySize=auto;html=1;exitX=1;exitY=0.5;exitDx=0;exitDy=0;exitPerimeter=0;entryX=1;entryY=0.5;entryDx=0;entryDy=0;entryPerimeter=0;" edge="1" parent="1" source="GP2_9fRb6jsG9fSEQ1mg-10" target="soa-nvEVilf6b3IacsVn-1">
          <mxGeometry relative="1" as="geometry">
            <mxPoint x="1050" y="1550" as="targetPoint" />
          </mxGeometry>
        </mxCell>
        <mxCell id="GP2_9fRb6jsG9fSEQ1mg-10" value="Menor consumo de capital + optima valoración" style="strokeWidth=2;html=1;shape=mxgraph.flowchart.decision;whiteSpace=wrap;fillColor=#f8cecc;strokeColor=#b85450;" parent="1" vertex="1">
          <mxGeometry x="610" y="1550" width="100" height="100" as="geometry" />
        </mxCell>
        <mxCell id="XgwGahx4obBgcmmxPO0F-9" style="edgeStyle=orthogonalEdgeStyle;rounded=0;orthogonalLoop=1;jettySize=auto;html=1;exitX=0.5;exitY=1;exitDx=0;exitDy=0;exitPerimeter=0;fillColor=#e1d5e7;strokeColor=#9673a6;" parent="1" source="XgwGahx4obBgcmmxPO0F-4" target="XgwGahx4obBgcmmxPO0F-8" edge="1">
          <mxGeometry relative="1" as="geometry" />
        </mxCell>
        <mxCell id="XxHAxnA4pDJHmgFTphE2-2" style="edgeStyle=orthogonalEdgeStyle;rounded=0;orthogonalLoop=1;jettySize=auto;html=1;exitX=1;exitY=0.5;exitDx=0;exitDy=0;exitPerimeter=0;" edge="1" parent="1" source="XgwGahx4obBgcmmxPO0F-4" target="soa-nvEVilf6b3IacsVn-1">
          <mxGeometry relative="1" as="geometry">
            <mxPoint x="950" y="720" as="targetPoint" />
          </mxGeometry>
        </mxCell>
        <mxCell id="XgwGahx4obBgcmmxPO0F-4" value="Precio indistinto + promedio optimo de proveedor" style="strokeWidth=2;html=1;shape=mxgraph.flowchart.decision;whiteSpace=wrap;fillColor=#e1d5e7;strokeColor=#9673a6;" parent="1" vertex="1">
          <mxGeometry x="796" y="1020" width="100" height="100" as="geometry" />
        </mxCell>
        <mxCell id="XgwGahx4obBgcmmxPO0F-17" style="edgeStyle=orthogonalEdgeStyle;rounded=0;orthogonalLoop=1;jettySize=auto;html=1;exitX=0.5;exitY=1;exitDx=0;exitDy=0;fillColor=#e1d5e7;strokeColor=#9673a6;" parent="1" source="XgwGahx4obBgcmmxPO0F-8" target="XgwGahx4obBgcmmxPO0F-16" edge="1">
          <mxGeometry relative="1" as="geometry" />
        </mxCell>
        <mxCell id="XgwGahx4obBgcmmxPO0F-8" value="Mostrar al proveedor más óptimo" style="rounded=1;whiteSpace=wrap;html=1;absoluteArcSize=1;arcSize=14;strokeWidth=2;fillColor=#e1d5e7;strokeColor=#9673a6;" parent="1" vertex="1">
          <mxGeometry x="796" y="1180" width="100" height="100" as="geometry" />
        </mxCell>
        <mxCell id="rQ1RyL4YtpQLSRB3d6i6-4" style="edgeStyle=orthogonalEdgeStyle;rounded=0;orthogonalLoop=1;jettySize=auto;html=1;exitX=0.5;exitY=1;exitDx=0;exitDy=0;entryX=0.5;entryY=0;entryDx=0;entryDy=0;fillColor=#f8cecc;strokeColor=#b85450;" parent="1" source="XgwGahx4obBgcmmxPO0F-12" target="rQ1RyL4YtpQLSRB3d6i6-3" edge="1">
          <mxGeometry relative="1" as="geometry" />
        </mxCell>
        <mxCell id="XgwGahx4obBgcmmxPO0F-12" value="Mostrar al proveedor más óptimo" style="rounded=1;whiteSpace=wrap;html=1;absoluteArcSize=1;arcSize=14;strokeWidth=2;fillColor=#f8cecc;strokeColor=#b85450;" parent="1" vertex="1">
          <mxGeometry x="610" y="1810" width="100" height="100" as="geometry" />
        </mxCell>
        <mxCell id="XgwGahx4obBgcmmxPO0F-16" value="Generar solicitud a Finanzas" style="rounded=1;whiteSpace=wrap;html=1;absoluteArcSize=1;arcSize=14;strokeWidth=2;fillColor=#e1d5e7;strokeColor=#9673a6;" parent="1" vertex="1">
          <mxGeometry x="796" y="1350" width="100" height="100" as="geometry" />
        </mxCell>
        <mxCell id="rQ1RyL4YtpQLSRB3d6i6-3" value="Generar solicitud a Finanzas" style="rounded=1;whiteSpace=wrap;html=1;absoluteArcSize=1;arcSize=14;strokeWidth=2;fillColor=#f8cecc;strokeColor=#b85450;" parent="1" vertex="1">
          <mxGeometry x="610" y="1980" width="100" height="100" as="geometry" />
        </mxCell>
        <mxCell id="rQ1RyL4YtpQLSRB3d6i6-7" value="Catalogo de Proveedores" style="rounded=1;whiteSpace=wrap;html=1;absoluteArcSize=1;arcSize=14;strokeWidth=2;fillColor=#ffe6cc;strokeColor=#d79b00;" parent="1" vertex="1">
          <mxGeometry x="500" y="-160" width="100" height="100" as="geometry" />
        </mxCell>
        <mxCell id="rQ1RyL4YtpQLSRB3d6i6-8" value="Mostrar lista de Proveedores" style="rounded=1;whiteSpace=wrap;html=1;absoluteArcSize=1;arcSize=14;strokeWidth=2;fillColor=#ffe6cc;strokeColor=#d79b00;" parent="1" vertex="1">
          <mxGeometry x="770" y="30" width="100" height="100" as="geometry" />
        </mxCell>
        <mxCell id="soa-nvEVilf6b3IacsVn-2" style="edgeStyle=orthogonalEdgeStyle;rounded=0;orthogonalLoop=1;jettySize=auto;html=1;exitX=0.5;exitY=1;exitDx=0;exitDy=0;fillColor=#ffe6cc;strokeColor=#d79b00;" parent="1" source="rQ1RyL4YtpQLSRB3d6i6-9" target="soa-nvEVilf6b3IacsVn-1" edge="1">
          <mxGeometry relative="1" as="geometry" />
        </mxCell>
        <mxCell id="rQ1RyL4YtpQLSRB3d6i6-9" value="Agregar nuevo Proveedor" style="rounded=1;whiteSpace=wrap;html=1;absoluteArcSize=1;arcSize=14;strokeWidth=2;fillColor=#ffe6cc;strokeColor=#d79b00;" parent="1" vertex="1">
          <mxGeometry x="950" y="-180" width="100" height="100" as="geometry" />
        </mxCell>
        <mxCell id="soa-nvEVilf6b3IacsVn-4" style="edgeStyle=orthogonalEdgeStyle;rounded=0;orthogonalLoop=1;jettySize=auto;html=1;exitX=0.5;exitY=1;exitDx=0;exitDy=0;entryX=0.5;entryY=1;entryDx=0;entryDy=0;fillColor=#ffe6cc;strokeColor=#d79b00;" parent="1" source="rQ1RyL4YtpQLSRB3d6i6-10" target="rQ1RyL4YtpQLSRB3d6i6-8" edge="1">
          <mxGeometry relative="1" as="geometry" />
        </mxCell>
        <mxCell id="rQ1RyL4YtpQLSRB3d6i6-10" value="Editar a un Proveedor existente" style="rounded=1;whiteSpace=wrap;html=1;absoluteArcSize=1;arcSize=14;strokeWidth=2;fillColor=#ffe6cc;strokeColor=#d79b00;" parent="1" vertex="1">
          <mxGeometry x="1130" y="30" width="100" height="100" as="geometry" />
        </mxCell>
        <mxCell id="soa-nvEVilf6b3IacsVn-6" style="edgeStyle=orthogonalEdgeStyle;rounded=0;orthogonalLoop=1;jettySize=auto;html=1;exitX=0.5;exitY=1;exitDx=0;exitDy=0;entryX=0.5;entryY=1;entryDx=0;entryDy=0;fillColor=#ffe6cc;strokeColor=#d79b00;" parent="1" source="rQ1RyL4YtpQLSRB3d6i6-11" target="rQ1RyL4YtpQLSRB3d6i6-8" edge="1">
          <mxGeometry relative="1" as="geometry" />
        </mxCell>
        <mxCell id="rQ1RyL4YtpQLSRB3d6i6-11" value="Eliminar a un Proveedor existente" style="rounded=1;whiteSpace=wrap;html=1;absoluteArcSize=1;arcSize=14;strokeWidth=2;fillColor=#ffe6cc;strokeColor=#d79b00;" parent="1" vertex="1">
          <mxGeometry x="1310" y="30" width="100" height="100" as="geometry" />
        </mxCell>
        <mxCell id="rQ1RyL4YtpQLSRB3d6i6-14" value="Sí" style="edgeStyle=orthogonalEdgeStyle;rounded=0;orthogonalLoop=1;jettySize=auto;html=1;exitX=0.5;exitY=1;exitDx=0;exitDy=0;exitPerimeter=0;entryX=0.5;entryY=0;entryDx=0;entryDy=0;fillColor=#ffe6cc;strokeColor=#d79b00;" parent="1" source="rQ1RyL4YtpQLSRB3d6i6-12" target="rQ1RyL4YtpQLSRB3d6i6-8" edge="1">
          <mxGeometry relative="1" as="geometry" />
        </mxCell>
        <mxCell id="rQ1RyL4YtpQLSRB3d6i6-12" value="Leer" style="strokeWidth=2;html=1;shape=mxgraph.flowchart.decision;whiteSpace=wrap;fillColor=#ffe6cc;strokeColor=#d79b00;" parent="1" vertex="1">
          <mxGeometry x="770" y="-160" width="100" height="100" as="geometry" />
        </mxCell>
        <mxCell id="rQ1RyL4YtpQLSRB3d6i6-13" style="edgeStyle=orthogonalEdgeStyle;rounded=0;orthogonalLoop=1;jettySize=auto;html=1;exitX=1;exitY=0.5;exitDx=0;exitDy=0;entryX=0;entryY=0.5;entryDx=0;entryDy=0;entryPerimeter=0;fillColor=#ffe6cc;strokeColor=#d79b00;" parent="1" source="rQ1RyL4YtpQLSRB3d6i6-7" target="rQ1RyL4YtpQLSRB3d6i6-12" edge="1">
          <mxGeometry relative="1" as="geometry" />
        </mxCell>
        <mxCell id="rQ1RyL4YtpQLSRB3d6i6-18" value="Sí" style="edgeStyle=orthogonalEdgeStyle;rounded=0;orthogonalLoop=1;jettySize=auto;html=1;exitX=0.5;exitY=1;exitDx=0;exitDy=0;exitPerimeter=0;entryX=0.5;entryY=0;entryDx=0;entryDy=0;fillColor=#ffe6cc;strokeColor=#d79b00;" parent="1" source="rQ1RyL4YtpQLSRB3d6i6-16" target="rQ1RyL4YtpQLSRB3d6i6-9" edge="1">
          <mxGeometry relative="1" as="geometry" />
        </mxCell>
        <mxCell id="rQ1RyL4YtpQLSRB3d6i6-20" value="No" style="edgeStyle=orthogonalEdgeStyle;rounded=0;orthogonalLoop=1;jettySize=auto;html=1;exitX=1;exitY=0.5;exitDx=0;exitDy=0;exitPerimeter=0;fillColor=#ffe6cc;strokeColor=#d79b00;" parent="1" source="rQ1RyL4YtpQLSRB3d6i6-16" target="rQ1RyL4YtpQLSRB3d6i6-19" edge="1">
          <mxGeometry relative="1" as="geometry" />
        </mxCell>
        <mxCell id="rQ1RyL4YtpQLSRB3d6i6-16" value="Crear" style="strokeWidth=2;html=1;shape=mxgraph.flowchart.decision;whiteSpace=wrap;fillColor=#ffe6cc;strokeColor=#d79b00;" parent="1" vertex="1">
          <mxGeometry x="950" y="-360" width="100" height="100" as="geometry" />
        </mxCell>
        <mxCell id="rQ1RyL4YtpQLSRB3d6i6-17" value="No" style="edgeStyle=orthogonalEdgeStyle;rounded=0;orthogonalLoop=1;jettySize=auto;html=1;exitX=1;exitY=0.5;exitDx=0;exitDy=0;exitPerimeter=0;entryX=0;entryY=0.5;entryDx=0;entryDy=0;entryPerimeter=0;fillColor=#ffe6cc;strokeColor=#d79b00;" parent="1" source="rQ1RyL4YtpQLSRB3d6i6-12" target="rQ1RyL4YtpQLSRB3d6i6-16" edge="1">
          <mxGeometry relative="1" as="geometry" />
        </mxCell>
        <mxCell id="rQ1RyL4YtpQLSRB3d6i6-21" value="Sí" style="edgeStyle=orthogonalEdgeStyle;rounded=0;orthogonalLoop=1;jettySize=auto;html=1;exitX=0.5;exitY=1;exitDx=0;exitDy=0;exitPerimeter=0;entryX=0.5;entryY=0;entryDx=0;entryDy=0;fillColor=#ffe6cc;strokeColor=#d79b00;" parent="1" source="rQ1RyL4YtpQLSRB3d6i6-19" target="rQ1RyL4YtpQLSRB3d6i6-10" edge="1">
          <mxGeometry relative="1" as="geometry" />
        </mxCell>
        <mxCell id="rQ1RyL4YtpQLSRB3d6i6-19" value="Actualizar" style="strokeWidth=2;html=1;shape=mxgraph.flowchart.decision;whiteSpace=wrap;fillColor=#ffe6cc;strokeColor=#d79b00;" parent="1" vertex="1">
          <mxGeometry x="1130" y="-160" width="100" height="100" as="geometry" />
        </mxCell>
        <mxCell id="rQ1RyL4YtpQLSRB3d6i6-25" value="Sí" style="edgeStyle=orthogonalEdgeStyle;rounded=0;orthogonalLoop=1;jettySize=auto;html=1;exitX=0.5;exitY=1;exitDx=0;exitDy=0;exitPerimeter=0;entryX=0.5;entryY=0;entryDx=0;entryDy=0;fillColor=#ffe6cc;strokeColor=#d79b00;" parent="1" source="rQ1RyL4YtpQLSRB3d6i6-22" target="rQ1RyL4YtpQLSRB3d6i6-11" edge="1">
          <mxGeometry relative="1" as="geometry" />
        </mxCell>
        <mxCell id="rQ1RyL4YtpQLSRB3d6i6-22" value="Eliminar" style="strokeWidth=2;html=1;shape=mxgraph.flowchart.decision;whiteSpace=wrap;fillColor=#ffe6cc;strokeColor=#d79b00;" parent="1" vertex="1">
          <mxGeometry x="1310" y="-160" width="100" height="100" as="geometry" />
        </mxCell>
        <mxCell id="rQ1RyL4YtpQLSRB3d6i6-23" value="No" style="edgeStyle=orthogonalEdgeStyle;rounded=0;orthogonalLoop=1;jettySize=auto;html=1;exitX=1;exitY=0.5;exitDx=0;exitDy=0;exitPerimeter=0;entryX=0;entryY=0.5;entryDx=0;entryDy=0;entryPerimeter=0;fillColor=#ffe6cc;strokeColor=#d79b00;" parent="1" source="rQ1RyL4YtpQLSRB3d6i6-19" target="rQ1RyL4YtpQLSRB3d6i6-22" edge="1">
          <mxGeometry relative="1" as="geometry" />
        </mxCell>
        <mxCell id="rQ1RyL4YtpQLSRB3d6i6-31" value="Fin" style="strokeWidth=2;html=1;shape=mxgraph.flowchart.terminator;whiteSpace=wrap;" parent="1" vertex="1">
          <mxGeometry x="910" y="1920" width="100" height="60" as="geometry" />
        </mxCell>
        <mxCell id="rQ1RyL4YtpQLSRB3d6i6-32" style="edgeStyle=orthogonalEdgeStyle;rounded=0;orthogonalLoop=1;jettySize=auto;html=1;exitX=0.5;exitY=1;exitDx=0;exitDy=0;entryX=0.5;entryY=0;entryDx=0;entryDy=0;entryPerimeter=0;fillColor=#f8cecc;strokeColor=#b85450;" parent="1" source="rQ1RyL4YtpQLSRB3d6i6-3" target="rQ1RyL4YtpQLSRB3d6i6-31" edge="1">
          <mxGeometry relative="1" as="geometry" />
        </mxCell>
        <mxCell id="rQ1RyL4YtpQLSRB3d6i6-34" style="edgeStyle=orthogonalEdgeStyle;rounded=0;orthogonalLoop=1;jettySize=auto;html=1;exitX=0.5;exitY=1;exitDx=0;exitDy=0;entryX=0.5;entryY=0;entryDx=0;entryDy=0;entryPerimeter=0;fillColor=#e1d5e7;strokeColor=#9673a6;" parent="1" source="XgwGahx4obBgcmmxPO0F-16" target="rQ1RyL4YtpQLSRB3d6i6-31" edge="1">
          <mxGeometry relative="1" as="geometry" />
        </mxCell>
        <mxCell id="soa-nvEVilf6b3IacsVn-5" style="edgeStyle=orthogonalEdgeStyle;rounded=0;orthogonalLoop=1;jettySize=auto;html=1;exitX=0.5;exitY=1;exitDx=0;exitDy=0;exitPerimeter=0;entryX=0.5;entryY=1;entryDx=0;entryDy=0;fillColor=#ffe6cc;strokeColor=#d79b00;" parent="1" source="soa-nvEVilf6b3IacsVn-1" target="rQ1RyL4YtpQLSRB3d6i6-8" edge="1">
          <mxGeometry relative="1" as="geometry" />
        </mxCell>
        <mxCell id="soa-nvEVilf6b3IacsVn-1" value="Cargar BD" style="shape=cylinder3;whiteSpace=wrap;html=1;boundedLbl=1;backgroundOutline=1;size=15;fillColor=#ffe6cc;strokeColor=#d79b00;" parent="1" vertex="1">
          <mxGeometry x="970" y="50" width="60" height="80" as="geometry" />
        </mxCell>
        <mxCell id="soa-nvEVilf6b3IacsVn-12" value="Sí" style="edgeStyle=orthogonalEdgeStyle;rounded=0;orthogonalLoop=1;jettySize=auto;html=1;exitX=0.5;exitY=1;exitDx=0;exitDy=0;exitPerimeter=0;entryX=0.5;entryY=0;entryDx=0;entryDy=0;fillColor=#d5e8d4;strokeColor=#82b366;" parent="1" source="soa-nvEVilf6b3IacsVn-10" target="soa-nvEVilf6b3IacsVn-11" edge="1">
          <mxGeometry relative="1" as="geometry" />
        </mxCell>
        <mxCell id="soa-nvEVilf6b3IacsVn-10" value="¿Existen más solicitudes?" style="strokeWidth=2;html=1;shape=mxgraph.flowchart.decision;whiteSpace=wrap;fillColor=#d5e8d4;strokeColor=#82b366;" parent="1" vertex="1">
          <mxGeometry x="414" y="480" width="100" height="100" as="geometry" />
        </mxCell>
        <mxCell id="soa-nvEVilf6b3IacsVn-11" value="Guardar en un acumulador" style="rounded=1;whiteSpace=wrap;html=1;absoluteArcSize=1;arcSize=14;strokeWidth=2;fillColor=#d5e8d4;strokeColor=#82b366;" parent="1" vertex="1">
          <mxGeometry x="414" y="660" width="100" height="100" as="geometry" />
        </mxCell>
        <mxCell id="soa-nvEVilf6b3IacsVn-13" style="edgeStyle=orthogonalEdgeStyle;rounded=0;orthogonalLoop=1;jettySize=auto;html=1;exitX=0.5;exitY=1;exitDx=0;exitDy=0;entryX=0.5;entryY=0;entryDx=0;entryDy=0;entryPerimeter=0;fillColor=#d5e8d4;strokeColor=#82b366;" parent="1" source="y1UfGzF3mYjny-DPBC8S-5" target="soa-nvEVilf6b3IacsVn-10" edge="1">
          <mxGeometry relative="1" as="geometry" />
        </mxCell>
        <mxCell id="soa-nvEVilf6b3IacsVn-14" style="edgeStyle=orthogonalEdgeStyle;rounded=0;orthogonalLoop=1;jettySize=auto;html=1;exitX=0;exitY=0.5;exitDx=0;exitDy=0;entryX=0;entryY=0.5;entryDx=0;entryDy=0;entryPerimeter=0;fillColor=#d5e8d4;strokeColor=#82b366;" parent="1" source="soa-nvEVilf6b3IacsVn-11" target="soa-nvEVilf6b3IacsVn-10" edge="1">
          <mxGeometry relative="1" as="geometry" />
        </mxCell>
        <mxCell id="soa-nvEVilf6b3IacsVn-15" value="No" style="edgeStyle=orthogonalEdgeStyle;rounded=0;orthogonalLoop=1;jettySize=auto;html=1;exitX=1;exitY=0.5;exitDx=0;exitDy=0;exitPerimeter=0;entryX=0.5;entryY=0;entryDx=0;entryDy=0;entryPerimeter=0;fillColor=#d5e8d4;strokeColor=#82b366;" parent="1" source="soa-nvEVilf6b3IacsVn-10" target="GP2_9fRb6jsG9fSEQ1mg-6" edge="1">
          <mxGeometry relative="1" as="geometry" />
        </mxCell>
        <mxCell id="XxHAxnA4pDJHmgFTphE2-1" style="edgeStyle=orthogonalEdgeStyle;rounded=0;orthogonalLoop=1;jettySize=auto;html=1;exitX=0.5;exitY=1;exitDx=0;exitDy=0;exitPerimeter=0;entryX=1;entryY=0.5;entryDx=0;entryDy=0;entryPerimeter=0;fillColor=#e1d5e7;strokeColor=#9673a6;" edge="1" parent="1" source="soa-nvEVilf6b3IacsVn-1" target="XgwGahx4obBgcmmxPO0F-4">
          <mxGeometry relative="1" as="geometry" />
        </mxCell>
        <mxCell id="XxHAxnA4pDJHmgFTphE2-4" style="edgeStyle=orthogonalEdgeStyle;rounded=0;orthogonalLoop=1;jettySize=auto;html=1;exitX=1;exitY=0.5;exitDx=0;exitDy=0;exitPerimeter=0;entryX=1;entryY=0.5;entryDx=0;entryDy=0;entryPerimeter=0;fillColor=#f8cecc;strokeColor=#b85450;" edge="1" parent="1" source="soa-nvEVilf6b3IacsVn-1" target="GP2_9fRb6jsG9fSEQ1mg-10">
          <mxGeometry relative="1" as="geometry" />
        </mxCell>
      </root>
    </mxGraphModel>
  </diagram>
</mxfile>
